<?xml version="1.0" encoding="UTF-8" standalone="no"?>
<!-- Created with Inkscape (http://www.inkscape.org/) -->

<svg
   xmlns:dc="http://purl.org/dc/elements/1.1/"
   xmlns:cc="http://creativecommons.org/ns#"
   xmlns:rdf="http://www.w3.org/1999/02/22-rdf-syntax-ns#"
   xmlns:svg="http://www.w3.org/2000/svg"
   xmlns="http://www.w3.org/2000/svg"
   xmlns:sodipodi="http://sodipodi.sourceforge.net/DTD/sodipodi-0.dtd"
   xmlns:inkscape="http://www.inkscape.org/namespaces/inkscape"
   id="svg2"
   version="1.1"
   inkscape:version="0.47 r22583"
   width="64"
   height="73"
   sodipodi:docname="b4.png">
  <metadata
     id="metadata8">
    <rdf:RDF>
      <cc:Work
         rdf:about="">
        <dc:format>image/svg+xml</dc:format>
        <dc:type
           rdf:resource="http://purl.org/dc/dcmitype/StillImage" />
        <dc:title></dc:title>
      </cc:Work>
    </rdf:RDF>
  </metadata>
  <defs
     id="defs6">
    <inkscape:perspective
       sodipodi:type="inkscape:persp3d"
       inkscape:vp_x="0 : 0.5 : 1"
       inkscape:vp_y="0 : 1000 : 0"
       inkscape:vp_z="1 : 0.5 : 1"
       inkscape:persp3d-origin="0.5 : 0.33333333 : 1"
       id="perspective10" />
    <inkscape:perspective
       id="perspective2927"
       inkscape:persp3d-origin="0.5 : 0.33333333 : 1"
       inkscape:vp_z="1 : 0.5 : 1"
       inkscape:vp_y="0 : 1000 : 0"
       inkscape:vp_x="0 : 0.5 : 1"
       sodipodi:type="inkscape:persp3d" />
  </defs>
  <sodipodi:namedview
     pagecolor="#ffffff"
     bordercolor="#666666"
     borderopacity="1"
     objecttolerance="10"
     gridtolerance="10"
     guidetolerance="10"
     inkscape:pageopacity="0"
     inkscape:pageshadow="2"
     inkscape:window-width="1366"
     inkscape:window-height="693"
     id="namedview4"
     showgrid="false"
     inkscape:zoom="0.32"
     inkscape:cx="-1194.336"
     inkscape:cy="-292.90302"
     inkscape:window-x="0"
     inkscape:window-y="25"
     inkscape:window-maximized="1"
     inkscape:current-layer="svg2" />
  <g
     id="g2899"
     style="fill:#245261;fill-opacity:1;stroke:#245261;stroke-opacity:1"
     inkscape:export-filename="/home/su/Documents/work_maths/images/right.png"
     inkscape:export-xdpi="90"
     inkscape:export-ydpi="90"
     transform="matrix(-1,0,0,1,29.708952,0)">
    <text
       transform="matrix(0,1,-1,0,0,0)"
       id="text2820"
       y="7.0808058"
       x="11.570211"
       style="font-size:40px;font-style:normal;font-weight:normal;fill:#245261;fill-opacity:1;stroke:#245261;stroke-opacity:1;font-family:Bitstream Vera Sans"
       xml:space="preserve"><tspan
         style="font-style:normal;font-variant:normal;font-weight:normal;font-stretch:normal;fill:#245261;fill-opacity:1;stroke:#245261;stroke-opacity:1;font-family:URW Gothic L;-inkscape-font-specification:URW Gothic L Book"
         y="7.0808058"
         x="11.570211"
         id="tspan2822"
         sodipodi:role="line">v</tspan></text>
    <text
       transform="scale(0.57378354,1.7428175)"
       id="text2824"
       y="-6.2688127"
       x="17.254347"
       style="font-size:95.39455414px;font-style:normal;font-weight:normal;fill:#245261;fill-opacity:1;stroke:#245261;stroke-width:1;stroke-opacity:1;font-family:Bitstream Vera Sans"
       xml:space="preserve"><tspan
         style="fill:#245261;fill-opacity:1;stroke:#245261;stroke-width:1;stroke-opacity:1"
         y="-6.2688127"
         x="17.254347"
         id="tspan2826"
         sodipodi:role="line">_</tspan></text>
    <path
       id="path2828"
       d="m 9.21875,17.28125 c -0.572732,0.214222 -12.67387,5.29368 -12.65625,5.3125 0.01355,0.01447 2.85354,1.238465 6.3125,2.71875 3.458961,1.480284 6.31185,2.683 6.34375,2.6875 0.0319,0.0045 0.0625,-2.415497 0.0625,-5.375 0,-3.116983 -0.02258,-5.35868 -0.0625,-5.34375 z"
       style="fill:#245261;fill-opacity:1;stroke:#245261;stroke-width:0.07733051;stroke-opacity:1" />
    <path
       id="path2833"
       d="m 9.320286,22.899601 8.16e-4,-1.429687 0.02051,0 0.02051,-1e-6 0,1.429687 0,1.429688 -0.02132,0 -0.02132,0 8.16e-4,-1.429687 z"
       style="fill:#245261;fill-opacity:1;stroke:#245261;stroke-width:0.00390625;stroke-opacity:1" />
    <path
       id="path2835"
       d="m 9.366024,22.8996 0,-1.429687 2.0625,0 2.0625,0 0,1.429687 0,1.429688 -2.0625,0 -2.0625,0 0,-1.429688 z"
       style="fill:#245261;fill-opacity:1;stroke:#245261;stroke-width:0.00390625;stroke-opacity:1" />
    <path
       id="path2837"
       d="m 9.323045,22.978702 c -6e-6,-0.742822 -0.0012,-1.386182 -0.0026,-1.429688 l -0.0026,-0.0791 0.0221,0 0.0221,0 0,1.429687 0,1.429688 -0.01953,0 -0.01953,0 -10e-6,-1.350586 0,0 z"
       style="fill:#245261;fill-opacity:1;stroke:#245261;stroke-width:0.00390625;stroke-opacity:1" />
    <path
       id="path2839"
       d="m 5.475399,22.8996 0,-1.429687 1.919921,0 1.919922,0 9.26e-4,0.139648 9.26e-4,0.139649 0.0011,-0.139649 0.0011,-0.139648 0.02144,0 0.02144,0 0,1.429687 0,1.429688 -0.01953,0 -0.01953,0 -7.87e-4,-1.188477 c -7.87e-4,-1.188043 -7.88e-4,-1.18821 -0.0033,-0.458008 -0.0014,0.401758 -0.0028,0.936573 -0.0031,1.188477 l -5.74e-4,0.458008 -1.919922,0 -1.919921,0 0,-1.429688 z"
       style="fill:#245261;fill-opacity:1;stroke:#245261;stroke-width:0.00390625;stroke-opacity:1" />
    <path
       id="path2841"
       d="M 5.204538,29.359103 C 0.933444,27.562867 -3.573587,25.66763 -4.811087,25.147466 l -2.2499999,-0.945754 -0.0081,-1.546456 -0.0081,-1.546455 0.8674759,-0.364939 c 0.477111,-0.200717 1.366694,-0.574674 1.97685,-0.831016 8.194644,-3.442779 18.986955,-7.981958 19.008117,-7.994697 0.01306,-0.0079 0.02009,0.655387 0.01563,1.473883 l -0.0081,1.488174 -2.150075,0.89667 -2.150075,0.896671 13.657888,0.0078 13.657887,0.0078 0,5.796805 0,5.796805 -14.002275,0.0078 -14.002275,0.0078 2.181963,0.928936 c 1.200079,0.510914 2.325922,0.989039 2.501872,1.0625 l 0.31991,0.133564 4.04e-4,1.101563 4.01e-4,1.101562 -0.914062,-8.44e-4 -0.914063,-8.43e-4 -7.765625,-3.265882 z m 4.179857,-9.477847 -0.008,-2.745416 -6.390625,2.666359 c -3.514844,1.466498 -6.4394,2.68911 -6.499014,2.716916 -0.08761,0.04087 -0.099,0.05581 -0.05938,0.07799 0.102163,0.05717 3.790061,1.620819 3.799792,1.611088 0.0056,-0.0056 -0.819841,-0.367245 -1.834346,-0.803622 -1.014505,-0.436377 -1.844555,-0.800754 -1.844555,-0.809727 0,-0.03353 7.878673,-3.356625 11.765625,-4.962549 l 0.90625,-0.374424 0.02323,0.114091 c 0.01277,0.06275 0.03331,1.056278 0.04563,2.20784 0.01232,1.151563 0.03166,2.044532 0.04297,1.984375 0.01131,-0.06016 0.01928,0.5375 0.01771,1.328125 -0.0022,1.116097 -0.0065,1.266318 -0.01932,0.671875 -0.01172,-0.545018 -0.02315,-0.05428 -0.03968,1.703125 -0.01277,1.357813 -0.03204,2.534323 -0.04282,2.614466 l -0.0196,0.145717 -0.14129,-0.06056 c -0.07771,-0.03331 -0.1466,-0.05526 -0.153088,-0.04877 -0.0065,0.0065 0.09042,0.05475 0.21536,0.10724 l 0.227158,0.09544 0.008,-2.74708 c 0.0044,-1.510894 0.0044,-3.982518 0,-5.492497 l 0,0 z m -0.554857,7.979791 c -0.04297,-0.02456 -0.09219,-0.04466 -0.109375,-0.04466 -0.01719,0 0.0039,0.0201 0.04687,0.04466 0.04297,0.02456 0.09219,0.04466 0.109375,0.04466 0.01719,0 -0.0039,-0.0201 -0.04687,-0.04466 z m -0.21875,-0.09375 c -0.04297,-0.02456 -0.09219,-0.04466 -0.109375,-0.04466 -0.01719,0 0.0039,0.0201 0.04687,0.04466 0.04297,0.02456 0.09219,0.04466 0.109375,0.04466 0.01719,0 -0.0039,-0.0201 -0.04687,-0.04466 z m -0.1875,-0.07813 c -0.02578,-0.01666 -0.06094,-0.03029 -0.07813,-0.03029 -0.01719,0 -0.01016,0.01363 0.01563,0.03029 0.02578,0.01666 0.06094,0.03029 0.07813,0.03029 0.01719,0 0.01016,-0.01363 -0.01563,-0.03029 z m -0.21875,-0.09375 c -0.02578,-0.01666 -0.06094,-0.03029 -0.07813,-0.03029 -0.01719,0 -0.01016,0.01363 0.01563,0.03029 0.02578,0.01666 0.06094,0.03029 0.07813,0.03029 0.01719,0 0.01016,-0.01363 -0.01563,-0.03029 z m -6.53125,-2.78125 c -0.02578,-0.01666 -0.06094,-0.03029 -0.07813,-0.03029 -0.01719,0 -0.01016,0.01363 0.01563,0.03029 0.02578,0.01666 0.06094,0.03029 0.07813,0.03029 0.01719,0 0.01016,-0.01363 -0.01563,-0.03029 z m -0.21875,-0.09375 c -0.02578,-0.01666 -0.06094,-0.03029 -0.07813,-0.03029 -0.01719,0 -0.01016,0.01363 0.01563,0.03029 0.02578,0.01666 0.06094,0.03029 0.07813,0.03029 0.01719,0 0.01016,-0.01363 -0.01563,-0.03029 z m -0.21875,-0.09375 c -0.02578,-0.01666 -0.06094,-0.03029 -0.07813,-0.03029 -0.01719,0 -0.01016,0.01363 0.01563,0.03029 0.02578,0.01666 0.06094,0.03029 0.07813,0.03029 0.01719,0 0.01016,-0.01363 -0.01563,-0.03029 z m -0.21875,-0.09375 c -0.02578,-0.01666 -0.06094,-0.03029 -0.07813,-0.03029 -0.01719,0 -0.01016,0.01363 0.01563,0.03029 0.02578,0.01666 0.06094,0.03029 0.07813,0.03029 0.01719,0 0.01016,-0.01363 -0.01563,-0.03029 z m -0.21875,-0.09375 c -0.02578,-0.01666 -0.06094,-0.03029 -0.07813,-0.03029 -0.01719,0 -0.01016,0.01363 0.01563,0.03029 0.02578,0.01666 0.06094,0.03029 0.07813,0.03029 0.01719,0 0.01016,-0.01363 -0.01563,-0.03029 z m -0.21875,-0.09375 c -0.02578,-0.01666 -0.06094,-0.03029 -0.07813,-0.03029 -0.01719,0 -0.01016,0.01363 0.01563,0.03029 0.02578,0.01666 0.06094,0.03029 0.07813,0.03029 0.01719,0 0.01016,-0.01363 -0.01563,-0.03029 z m -0.1875,-0.07813 c -0.04297,-0.02456 -0.09219,-0.04466 -0.109375,-0.04466 -0.01719,0 0.0039,0.0201 0.04687,0.04466 0.04297,0.02456 0.09219,0.04466 0.109375,0.04466 0.01719,0 -0.0039,-0.0201 -0.04687,-0.04466 z"
       style="fill:#245261;fill-opacity:1;stroke:#245261;stroke-width:0.03125;stroke-opacity:1" />
    <path
       id="path2843"
       d="M 6.095163,29.741026 C 2.331101,28.15659 -2.172268,26.26276 -3.912322,25.532515 l -3.1637343,-1.327718 -3.278e-4,-1.549671 -3.278e-4,-1.549672 0.070312,-0.03195 c 0.038671,-0.01757 1.9476559,-0.82058 4.2421869,-1.784464 2.294531,-0.963884 7.18125,-3.018047 10.859375,-4.564807 l 6.6875,-2.812291 0.0081,1.47268 c 0.0045,0.809973 -0.0026,1.482683 -0.01563,1.49491 -0.01306,0.01223 -0.965114,0.41385 -2.115675,0.892497 l -2.091927,0.870266 0.591927,0.01936 c 0.325561,0.01065 6.452475,0.0212 13.615366,0.02344 l 13.023437,0.0041 0,5.796875 0,5.796875 -13.476562,0.0041 c -7.41211,0.0023 -13.694342,0.01282 -13.960517,0.02344 l -0.483954,0.0193 1.921454,0.817269 c 1.0568,0.449498 2.164032,0.919145 2.460517,1.043659 l 0.539062,0.226391 0,1.104778 0,1.104778 -0.929687,-0.0024 -0.929688,-0.0024 -6.84375,-2.880792 0,-10e-7 z m 3.276343,-2.16622 c 0.03203,-0.812261 0.02511,-3.260634 -0.0092,-3.260634 -0.01637,0 -0.03475,-0.08789 -0.04085,-0.195312 -0.0061,-0.107422 -0.01484,0.339062 -0.01941,0.992187 -0.0046,0.653125 -0.01885,1.58125 -0.03173,2.0625 -0.02243,0.838551 -0.01698,0.919353 0.06216,0.921397 0.01019,2.5e-4 0.02777,-0.233799 0.03906,-0.520138 l 0,0 z M -1.607962,23.407922 c -0.02578,-0.01666 -0.06094,-0.03029 -0.07813,-0.03029 -0.01719,0 -0.01016,0.01363 0.01563,0.03029 0.02578,0.01666 0.06094,0.03029 0.07813,0.03029 0.01719,0 0.01016,-0.01363 -0.01563,-0.03029 z m -0.21875,-0.09375 c -0.02578,-0.01666 -0.06094,-0.03029 -0.07813,-0.03029 -0.01719,0 -0.01016,0.01363 0.01563,0.03029 0.02578,0.01666 0.06094,0.03029 0.07813,0.03029 0.01719,0 0.01016,-0.01363 -0.01563,-0.03029 z m -0.125,-0.04285 c 0,-0.0064 -0.3375,-0.157307 -0.75,-0.335391 -0.4125,-0.178084 -0.75,-0.332504 -0.75,-0.343156 0,-0.03014 2.649025,-1.153432 8.0625,-3.41881 4.022254,-1.683193 4.603659,-1.9228 4.621752,-1.904707 0.02936,0.02937 0.06126,1.421643 0.06456,2.818353 0.0029,1.239872 0.0084,1.382812 0.0528,1.382812 0.04484,0 0.04837,-0.202408 0.03726,-2.138777 -0.0067,-1.176327 -0.02045,-2.146962 -0.03045,-2.156965 -0.01,-0.01 -1.957319,0.79136 -4.327369,1.780808 -2.370049,0.989447 -5.275979,2.202655 -6.457622,2.696017 -1.181642,0.493362 -2.144544,0.908711 -2.139782,0.922998 0.0076,0.0227 1.531617,0.697646 1.592911,0.705439 0.01289,0.0016 0.02344,-0.0022 0.02344,-0.0086 l 0,0 z"
       style="fill:#245261;fill-opacity:1;stroke:#245261;stroke-width:0.03125;stroke-opacity:1" />
    <path
       id="path2845"
       d="M 7.095163,30.170436 C 3.898288,28.823333 -0.598325,26.931233 -2.897311,25.96577 l -4.1799733,-1.755388 0.0081,-1.560029 0.0081,-1.560029 0.2812503,-0.11918 c 0.154688,-0.06555 1.125,-0.473719 2.15625,-0.907043 1.03125,-0.433325 2.353125,-0.988782 2.9375,-1.234351 0.584375,-0.245568 4.514844,-1.898118 8.734375,-3.672332 4.219531,-1.774215 7.68959,-3.232724 7.711243,-3.241131 0.03139,-0.01219 0.03772,0.287603 0.03125,1.479365 l -0.0081,1.49465 -2.023881,0.845187 c -1.113135,0.464853 -2.047721,0.860225 -2.07686,0.878605 -0.05896,0.03719 10.588413,0.07506 21.108554,0.07507 l 6.007812,7e-6 0,5.796875 0,5.796875 -5.619806,0 c -8.013372,0 -22.224062,0.03829 -22.223299,0.05988 5.91e-4,0.01671 1.148114,0.508117 3.811855,1.632355 l 1.015625,0.428648 0.0082,1.111435 0.0082,1.111436 -0.945707,-0.0035 -0.945707,-0.0035 -5.8125,-2.449279 z m 2.28007,-3.413161 c 0.02198,-1.280847 8.1e-4,-2.456218 -0.04375,-2.428682 -0.01157,0.0071 -0.02368,0.312686 -0.02691,0.678975 -0.0032,0.366289 -0.01497,1.195002 -0.02608,1.841585 -0.01111,0.646582 -0.01037,1.191504 0.0016,1.210937 0.01201,0.01943 0.03315,0.03533 0.04698,0.03533 0.01383,0 0.03548,-0.602166 0.04811,-1.338147 l 1e-6,0 z M -2.779837,22.28215 c 0.6429,-0.277267 5.562179,-2.349826 7.601482,-3.202607 0.691752,-0.289272 1.252822,-0.530859 1.246821,-0.53686 -0.01244,-0.01244 -9.529109,3.955584 -9.625077,4.013221 -0.01473,0.0088 -0.0088,0.02716 0.01307,0.0407 0.02207,0.01364 0.06886,0.0061 0.104899,-0.01688 0.03578,-0.02283 0.332247,-0.156736 0.658809,-0.297575 l 0,0 z m 12.151688,-3.196178 -0.02669,-1.924543 -0.125,0.06047 c -0.06875,0.03326 -0.09508,0.05316 -0.0585,0.04423 0.05313,-0.01298 0.0703,0.0012 0.0854,0.07059 0.01039,0.04776 0.02656,0.79699 0.03593,1.664958 0.0094,0.867969 0.02649,1.782032 0.03805,2.03125 l 0.02101,0.453125 0.02825,-0.237766 c 0.01668,-0.140454 0.01732,-1.025436 0.0016,-2.162309 l 2e-6,0 z M 6.323022,18.454314 c 0.07376,-0.02982 0.128315,-0.06001 0.121232,-0.06709 -0.0071,-0.0071 -0.08853,0.02302 -0.180984,0.06689 -0.182393,0.08655 -0.154068,0.08664 0.05975,1.87e-4 l 0,1.4e-5 z m 0.287766,-0.124517 c 0.04297,-0.02456 0.06406,-0.04466 0.04687,-0.04466 -0.01719,0 -0.06641,0.0201 -0.109375,0.04466 -0.04297,0.02456 -0.06406,0.04466 -0.04687,0.04466 0.01719,0 0.06641,-0.0201 0.109375,-0.04466 z m 0.1875,-0.07813 c 0.02578,-0.01666 0.03281,-0.03029 0.01563,-0.03029 -0.01719,0 -0.05234,0.01363 -0.07813,0.03029 -0.02578,0.01666 -0.03281,0.03029 -0.01563,0.03029 0.01719,0 0.05234,-0.01363 0.07813,-0.03029 z m 0.1875,-0.07813 c 0.04297,-0.02456 0.06406,-0.04466 0.04687,-0.04466 -0.01719,0 -0.06641,0.0201 -0.109375,0.04466 -0.04297,0.02456 -0.06406,0.04466 -0.04687,0.04466 0.01719,0 0.06641,-0.0201 0.109375,-0.04466 z m 0.1875,-0.07813 c 0.02578,-0.01666 0.03281,-0.03029 0.01563,-0.03029 -0.01719,0 -0.05234,0.01363 -0.07813,0.03029 -0.02578,0.01666 -0.03281,0.03029 -0.01563,0.03029 0.01719,0 0.05234,-0.01363 0.07813,-0.03029 z m 0.1875,-0.07813 c 0.04297,-0.02456 0.06406,-0.04466 0.04687,-0.04466 -0.01719,0 -0.06641,0.0201 -0.109375,0.04466 -0.04297,0.02456 -0.06406,0.04466 -0.04687,0.04466 0.01719,0 0.06641,-0.0201 0.109375,-0.04466 z m 0.1875,-0.07813 c 0.02578,-0.01666 0.03281,-0.03029 0.01563,-0.03029 -0.01719,0 -0.05234,0.01363 -0.07813,0.03029 -0.02578,0.01666 -0.03281,0.03029 -0.01563,0.03029 0.01719,0 0.05234,-0.01363 0.07813,-0.03029 z m 0.1875,-0.07813 c 0.04297,-0.02456 0.06406,-0.04466 0.04687,-0.04466 -0.01719,0 -0.06641,0.0201 -0.109375,0.04466 -0.04297,0.02456 -0.06406,0.04466 -0.04687,0.04466 0.01719,0 0.06641,-0.0201 0.109375,-0.04466 z m 0.1875,-0.07813 c 0.02578,-0.01666 0.03281,-0.03029 0.01563,-0.03029 -0.01719,0 -0.05234,0.01363 -0.07813,0.03029 -0.02578,0.01666 -0.03281,0.03029 -0.01563,0.03029 0.01719,0 0.05234,-0.01363 0.07813,-0.03029 z m 0.15625,-0.0625 c 0.02578,-0.01666 0.03281,-0.03029 0.01563,-0.03029 -0.01719,0 -0.05234,0.01363 -0.07813,0.03029 -0.02578,0.01666 -0.03281,0.03029 -0.01563,0.03029 0.01719,0 0.05234,-0.01363 0.07813,-0.03029 z"
       style="fill:#245261;fill-opacity:1;stroke:#245261;stroke-width:0.03125;stroke-opacity:1" />
    <path
       id="path2847"
       d="m 7.642038,30.40634 c -4.976121,-2.095901 -8.085677,-3.40421 -10.25,-4.312569 -0.524219,-0.220012 -1.740625,-0.730584 -2.703125,-1.134605 l -1.7499999,-0.734582 0,-1.571364 0,-1.571364 2.2968749,-0.964943 c 1.263281,-0.530719 6.174117,-2.594854 10.912968,-4.586967 4.738851,-1.992113 8.623617,-3.622024 8.632812,-3.622024 0.0092,0 0.01654,0.671485 0.01631,1.492188 l -4.09e-4,1.492187 -0.24178,0.100314 c -1.587449,0.658628 -3.778393,1.582023 -3.7979,1.600663 -0.045,0.043 1.264842,0.06337 4.087371,0.06357 1.529687,1.25e-4 7.319921,0.0097 12.867185,0.02123 l 10.085938,0.02103 0,5.786796 0,5.786796 -9.148438,0.02118 c -5.031639,0.01165 -11.28242,0.02133 -13.890623,0.0215 -2.608203,1.87e-4 -4.742187,0.01221 -4.742187,0.02675 0,0.03191 0.392337,0.204218 2.390625,1.049935 0.842187,0.356431 1.721093,0.728676 1.953125,0.82721 l 0.421875,0.179153 0.0082,1.114119 0.0082,1.114119 -0.945707,-0.0012 -0.945707,-0.0012 -5.265625,-2.217837 z m 1.711401,-4.326543 c -6.53e-4,-0.92473 -0.01134,-1.545832 -0.02421,-1.40625 -0.03231,0.350553 -0.06631,3.344776 -0.03831,3.373121 0.05001,0.05061 0.06364,-0.378263 0.06252,-1.966871 z M -2.904837,22.334892 c 0.326563,-0.143078 1.405888,-0.602337 2.3985,-1.020577 0.992612,-0.418239 1.799949,-0.765236 1.79408,-0.771104 -0.0093,-0.0093 -2.833318,1.16561 -4.270705,1.776887 -0.477882,0.203229 -0.621379,0.275628 -0.545312,0.27513 0.01633,-9.4e-5 0.296875,-0.117258 0.623437,-0.260336 l 0,0 z M 9.36031,19.290735 c -2.5e-4,-1.112891 -0.01193,-2.041492 -0.02594,-2.063559 -0.014,-0.02207 -0.04814,-0.03142 -0.07586,-0.02078 -0.03934,0.01509 -0.04403,0.03611 -0.02136,0.09572 0.02107,0.05541 0.08449,2.782282 0.09204,3.957365 1.87e-4,0.03008 0.0074,0.05469 0.01598,0.05469 0.0086,0 0.01541,-0.910547 0.01515,-2.023437 z m -7.818538,1.163579 c 0.07376,-0.02982 0.128315,-0.06001 0.121232,-0.06709 -0.0071,-0.0071 -0.08853,0.02302 -0.180984,0.06689 -0.182393,0.08655 -0.154068,0.08664 0.05975,1.87e-4 l 0,1.4e-5 z m 0.287766,-0.124517 c 0.04297,-0.02456 0.06406,-0.04466 0.04687,-0.04466 -0.01719,0 -0.06641,0.0201 -0.109375,0.04466 -0.04297,0.02456 -0.06406,0.04466 -0.04687,0.04466 0.01719,0 0.06641,-0.0201 0.109375,-0.04466 z m 0.1875,-0.07813 c 0.02578,-0.01666 0.03281,-0.03029 0.01563,-0.03029 -0.01719,0 -0.05234,0.01363 -0.07813,0.03029 -0.02578,0.01666 -0.03281,0.03029 -0.01563,0.03029 0.01719,0 0.05234,-0.01363 0.07813,-0.03029 z m 0.21875,-0.09375 c 0.02578,-0.01666 0.03281,-0.03029 0.01563,-0.03029 -0.01719,0 -0.05234,0.01363 -0.07813,0.03029 -0.02578,0.01666 -0.03281,0.03029 -0.01563,0.03029 0.01719,0 0.05234,-0.01363 0.07813,-0.03029 z m 0.15625,-0.0625 c 0.02578,-0.01666 0.03281,-0.03029 0.01563,-0.03029 -0.01719,0 -0.05234,0.01363 -0.07813,0.03029 -0.02578,0.01666 -0.03281,0.03029 -0.01563,0.03029 0.01719,0 0.05234,-0.01363 0.07813,-0.03029 z"
       style="fill:#245261;fill-opacity:1;stroke:#245261;stroke-width:0.03125;stroke-opacity:1" />
    <path
       id="path2849"
       d="m 7.501413,30.355352 c -2.95625,-1.246239 -7.442187,-3.134258 -9.96875,-4.195598 l -4.5937499,-1.92971 -0.00767,-1.575123 -0.00767,-1.575124 0.5389229,-0.225549 c 1.213615,-0.507921 12.763327,-5.36151 17.757673,-7.46239 1.907813,-0.802524 3.493359,-1.466355 3.523438,-1.47518 0.05155,-0.01512 0.05469,0.07003 0.05469,1.482301 l 0,1.498346 -2.001797,0.838988 c -1.586562,0.664956 -1.99031,0.845417 -1.946417,0.869981 0.04749,0.02658 13.519327,0.07086 24.565402,0.08075 l 2.382812,0.0021 0,5.791697 0,5.791695 -5.507812,0.02079 c -3.029297,0.01144 -8.671875,0.02082 -12.539063,0.02084 -6.901917,6.3e-5 -9.729667,0.01884 -9.680831,0.06433 0.02589,0.02412 2.72175,1.177074 3.984925,1.704261 l 0.741593,0.309504 5.94e-4,1.117188 5.93e-4,1.117187 -0.960937,-0.0027 -0.960938,-0.0027 -5.375,-2.265888 1e-6,-1e-6 z m 1.852394,-4.04118 c 0.0011,-0.68358 -0.0094,-1.199514 -0.02361,-1.15625 -0.01412,0.04297 -0.02501,0.703907 -0.02421,1.46875 8.06e-4,0.764844 0.01143,1.285156 0.02361,1.15625 0.01218,-0.128906 0.02307,-0.789844 0.02421,-1.46875 z m -0.0022,-1.570312 c -0.0074,-0.03867 -0.01354,-0.007 -0.01354,0.07031 0,0.07734 0.0061,0.108985 0.01354,0.07031 0.0074,-0.03867 0.0074,-0.101953 0,-0.140625 z M -2.715391,22.246524 c 0.368527,-0.15752 0.665011,-0.291436 0.658855,-0.297593 -0.01073,-0.01073 -1.334509,0.544655 -1.361322,0.571133 -0.0387,0.03822 0.09373,-0.01335 0.702467,-0.27354 z m 0.826179,-0.354227 c 0.04297,-0.02456 0.06406,-0.04466 0.04687,-0.04466 -0.01719,0 -0.06641,0.0201 -0.109375,0.04466 -0.04297,0.02456 -0.06406,0.04466 -0.04687,0.04466 0.01719,0 0.06641,-0.0201 0.109375,-0.04466 z m 0.1875,-0.07813 c 0.02578,-0.01666 0.03281,-0.03029 0.01563,-0.03029 -0.01719,0 -0.05234,0.01363 -0.07813,0.03029 -0.02578,0.01666 -0.03281,0.03029 -0.01563,0.03029 0.01719,0 0.05234,-0.01363 0.07813,-0.03029 z m 0.21875,-0.09375 c 0.02578,-0.01666 0.03281,-0.03029 0.01563,-0.03029 -0.01719,0 -0.05234,0.01363 -0.07813,0.03029 -0.02578,0.01666 -0.03281,0.03029 -0.01563,0.03029 0.01719,0 0.05234,-0.01363 0.07813,-0.03029 z m 0.375,-0.15625 c 0.02578,-0.01666 0.03281,-0.03029 0.01563,-0.03029 -0.01719,0 -0.05234,0.01363 -0.07813,0.03029 -0.02578,0.01666 -0.03281,0.03029 -0.01563,0.03029 0.01719,0 0.05234,-0.01363 0.07813,-0.03029 z M 9.337517,17.557362 c -0.01556,-0.241462 -0.0346,-0.358541 -0.0559,-0.34375 -0.02152,0.01495 -0.02513,0.199587 -0.01082,0.55368 0.01181,0.292188 0.02282,0.863011 0.02448,1.268497 0.0017,0.405485 0.01356,0.932829 0.02645,1.171875 0.01803,0.334437 0.02528,0.121262 0.03142,-0.924747 0.0044,-0.747656 -0.0026,-1.524156 -0.01563,-1.725555 l 0,0 z"
       style="fill:#245261;fill-opacity:1;stroke:#245261;stroke-width:0.03125;stroke-opacity:1" />
    <path
       id="path2851"
       d="m 6.548288,29.959914 c -3.480469,-1.465662 -6.834375,-2.877515 -7.453125,-3.137451 -0.61875,-0.259935 -1.757812,-0.738427 -2.53125,-1.063316 -0.773437,-0.324888 -1.908621,-0.800495 -2.522629,-1.056903 l -1.1163796,-0.466197 -8.081e-4,-1.580695 -8.082e-4,-1.580695 1.8671879,-0.784271 c 1.884447,-0.791522 8.273173,-3.475653 15.804687,-6.640114 2.251563,-0.946022 4.118359,-1.7267 4.148438,-1.73484 0.05153,-0.01394 0.05469,0.07186 0.05469,1.48597 l 0,1.500769 -0.445312,0.18694 c -0.244922,0.102818 -1.141407,0.480284 -1.992188,0.838813 l -1.546875,0.651873 0.40625,0.02119 c 0.223438,0.01165 6.25625,0.03591 13.40625,0.05389 7.15,0.01799 13.038672,0.03306 13.085938,0.0335 l 0.08594,7.94e-4 0,5.796875 c 0,3.188282 -0.0035,5.797521 -0.0078,5.79831 -0.01341,0.0025 -27.502999,0.06441 -27.59375,0.06218 -0.1212,-0.003 -0.106678,0.04342 0.03125,0.09983 0.06445,0.02636 0.672656,0.286516 1.351562,0.578117 0.678906,0.291601 1.680859,0.717602 2.226563,0.946669 l 0.992187,0.416486 0,1.119513 0,1.119513 -0.960937,-9.59e-4 -0.960938,-9.58e-4 -6.328125,-2.664841 z M 9.320342,27.58761 c -0.0074,-0.03867 -0.01354,-0.007 -0.01354,0.07031 0,0.07734 0.0061,0.108985 0.01354,0.07031 0.0074,-0.03867 0.0074,-0.101953 0,-0.140625 z m 0.03354,-1.554688 c -1.87e-4,-0.336079 -0.0082,-0.446105 -0.02614,-0.359375 -0.01422,0.06875 -0.02444,0.413282 -0.0227,0.765625 0.0026,0.52464 0.0073,0.589705 0.02614,0.359375 0.01264,-0.154687 0.02286,-0.499218 0.0227,-0.765625 z m -0.0038,-5.820907 c -0.0086,-0.02116 -0.01504,0.0037 -0.01441,0.05528 6.38e-4,0.05156 0.0076,0.06887 0.01556,0.03847 0.0079,-0.03041 0.0074,-0.07259 -0.0012,-0.09375 l 10e-7,0 z m -0.0062,-2.108425 c -0.01213,-0.499097 -0.03349,-0.87502 -0.04916,-0.865336 -0.03112,0.01923 -0.0068,2.13059 0.02823,2.450918 0.03512,0.321146 0.04644,-0.536308 0.02093,-1.585582 z"
       style="fill:#245261;fill-opacity:1;stroke:#245261;stroke-width:0.03125;stroke-opacity:1" />
    <path
       id="path2853"
       d="M 11.220163,31.934667 C 8.869691,30.940405 -0.991429,26.790354 -4.272024,25.414783 l -2.8046879,-1.176022 0,-1.582278 0,-1.582279 0.083654,-0.03812 c 0.04601,-0.02096 0.956556,-0.404478 2.023437,-0.852254 1.066881,-0.447777 4.710097,-1.978262 8.096034,-3.401079 9.4990619,-3.991634 11.6082379,-4.874834 11.6416259,-4.874834 0.01998,0 0.02799,0.529783 0.02274,1.504196 l -0.0081,1.504195 -0.8125,0.339552 c -1.766789,0.738358 -3.049966,1.288026 -3.065493,1.313149 -0.02638,0.04268 -0.881566,0.03811 12.627993,0.06748 5.740625,0.01248 11.298828,0.03112 12.351563,0.04143 l 1.914062,0.01874 0,5.78934 0,5.789339 -2.539062,0.01879 c -1.396485,0.01033 -7.580469,0.02842 -13.742188,0.04018 -6.161719,0.01177 -11.241797,0.0226 -11.289062,0.02406 -0.11479,0.0036 -0.108285,0.02731 0.02487,0.09081 0.224213,0.10692 4.199242,1.794313 4.464297,1.895087 l 0.08114,0.03085 0,1.028118 c 0,0.565464 0.0088,1.072062 0.01953,1.125773 l 0.01953,0.09766 -0.996094,-0.0023 -0.996094,-0.0023 -1.625,-0.687383 0,0 z M 9.320894,26.24386 c -0.0069,-0.05586 -0.0126,-0.01016 -0.0126,0.101562 0,0.111719 0.0057,0.157422 0.0126,0.101563 0.0069,-0.05586 0.0069,-0.147266 0,-0.203125 z m 0.02031,-7.75 c -0.01048,-0.554297 -0.0281,-1.054781 -0.03916,-1.112188 -0.02367,-0.122868 -0.0098,1.869167 0.01409,2.018438 0.0089,0.05586 0.0225,0.101562 0.03017,0.101562 0.0077,0 0.0054,-0.453515 -0.0051,-1.007812 l 0,0 z"
       style="fill:#245261;fill-opacity:1;stroke:#245261;stroke-width:0.03125;stroke-opacity:1" />
    <path
       id="path2855"
       d="M 7.563913,30.403925 C 1.677966,27.920247 -1.001334,26.792777 -5.123587,25.064928 -6.034524,24.683107 -6.84676,24.342139 -6.928556,24.307221 l -0.1487192,-0.06349 0.00809,-1.593658 0.00809,-1.593657 1.1718752,-0.492381 c 0.644531,-0.27081 1.825781,-0.766953 2.625,-1.10254 0.799219,-0.335587 4.532813,-1.903766 8.296875,-3.484843 8.471951,-3.558602 9.692322,-4.068733 9.733509,-4.068733 0.02245,0 0.03017,0.472853 0.0246,1.506619 l -0.0081,1.50662 -0.953125,0.399881 c -1.745321,0.732245 -2.87465,1.217282 -2.889253,1.24091 -0.02247,0.03636 5.219814,0.06341 15.701753,0.08102 5.285156,0.0089 9.964453,0.02449 10.398438,0.0347 l 0.789062,0.01856 -1.9e-5,2.863659 c -9e-6,1.575013 -0.0093,4.180111 -0.02075,5.789109 l -0.02073,2.925449 -1.346437,0.01976 c -0.740544,0.01087 -6.844878,0.02856 -13.565191,0.03932 -6.720312,0.01076 -12.338037,0.02838 -12.483833,0.03917 l -0.265084,0.0196 1.593209,0.679692 c 0.876264,0.37383 1.923677,0.817996 2.327583,0.987036 l 0.734375,0.307344 0.01946,0.341089 c 0.0107,0.187599 0.02125,0.696167 0.02344,1.130152 l 0.004,0.789062 -1.007812,-0.0037 -1.007813,-0.0037 -5.25,-2.215329 z m 1.757672,-12.14444 c -0.0056,-0.167578 -0.01022,-0.03047 -0.01022,0.304687 0,0.335157 0.0046,0.472266 0.01022,0.304688 0.0056,-0.167578 0.0056,-0.441797 0,-0.609375 z m -0.0018,-0.71875 c -0.0079,-0.03008 -0.01429,-0.0055 -0.01429,0.05469 0,0.06016 0.0064,0.08477 0.01429,0.05469 0.0079,-0.03008 0.0079,-0.0793 0,-0.109375 z"
       style="fill:#245261;fill-opacity:1;stroke:#245261;stroke-width:0.03125;stroke-opacity:1" />
    <path
       transform="matrix(0.86046512,0,0,0.86046512,24.749273,-3.565407)"
       d="m -33.875,30.4375 c 0,1.208123 -0.979377,2.1875 -2.1875,2.1875 -1.208123,0 -2.1875,-0.979377 -2.1875,-2.1875 0,-1.208123 0.979377,-2.1875 2.1875,-2.1875 1.208123,0 2.1875,0.979377 2.1875,2.1875 z"
       sodipodi:ry="2.1875"
       sodipodi:rx="2.1875"
       sodipodi:cy="30.4375"
       sodipodi:cx="-36.0625"
       id="path2857"
       style="fill:#245261;fill-opacity:1;stroke:#245261;stroke-opacity:1"
       sodipodi:type="arc" />
  </g>
</svg>
